PathFileType	4	(x/y/z)	S09_SL_Cal_T01
DataRate	CameraRate	NumFrames	NumMarkers	Units	OrigDataRate	OrigDataStartFrame	OrigNumFrames
240	240	5	51	mm	240	1801	2400
Frame#	Time	Sternum			R.Acromium			L.Acromium			Top.Head			R.ASIS			L.ASIS			R.PSIS			L.PSIS			R.Great.Tro			L.Great.Tro			R.Iliac.Crest			L.Iliac.Crest			V.Sacral			R.Thigh.Upper.Post			R.Thigh.Lower.Ant			R.Thigh.Lower.Post			R.Thigh.Upper.Ant			R.Knee.Lat			R.Knee.Med			R.Shank.Upper.Post			R.Shank.Lower.Ant			R.Shank.Lower.Post			R.Shank.Upper.Ant			R.Ankle.Lat			R.Ankle.Med			R.Heel.Upper			R.Heel.Med			R.Heel.Lat			R.Toe.Lat			R.Toe.Med			R.Toe.Tip			L.Thigh.Upper.Post			L.Thigh.Lower.Ant			L.Thigh.Lower.Post			L.Thigh.Upper.Ant			L.Knee.Lat			L.Knee.Med			L.Shank.Upper.Post			L.Shank.Lower.Ant			L.Shank.Lower.Post			L.Shank.Upper.Ant			L.Ankle.Lat			L.Ankle.Med			L.Heel.Upper			L.Heel.Med			L.Heel.Lat			L.Toe.Lat			L.Toe.Med			L.Toe.Tip			Cervical.Spine			Back			
		X1	Y1	Z1	X2	Y2	Z2	X3	Y3	Z3	X4	Y4	Z4	X5	Y5	Z5	X6	Y6	Z6	X7	Y7	Z7	X8	Y8	Z8	X9	Y9	Z9	X10	Y10	Z10	X11	Y11	Z11	X12	Y12	Z12	X13	Y13	Z13	X14	Y14	Z14	X15	Y15	Z15	X16	Y16	Z16	X17	Y17	Z17	X18	Y18	Z18	X19	Y19	Z19	X20	Y20	Z20	X21	Y21	Z21	X22	Y22	Z22	X23	Y23	Z23	X24	Y24	Z24	X25	Y25	Z25	X26	Y26	Z26	X27	Y27	Z27	X28	Y28	Z28	X29	Y29	Z29	X30	Y30	Z30	X31	Y31	Z31	X32	Y32	Z32	X33	Y33	Z33	X34	Y34	Z34	X35	Y35	Z35	X36	Y36	Z36	X37	Y37	Z37	X38	Y38	Z38	X39	Y39	Z39	X40	Y40	Z40	X41	Y41	Z41	X42	Y42	Z42	X43	Y43	Z43	X44	Y44	Z44	X45	Y45	Z45	X46	Y46	Z46	X47	Y47	Z47	X48	Y48	Z48	X49	Y49	Z49	X50	Y50	Z50	X51	Y51	Z51	

1801	7.5	589.09	1199.6	293.38	460.58	1454.9	444.29	458.49	1449.5	129.31	525.75	1748.7	288.92	550.02	1034.4	400.92	536.22	1031.5	154.32	327.34	1062.5	334.46	328.68	1063.4	244.85	466.85	951.51	476.65	453.93	946.87	93.084	460.75	1114.9	448.67	428.2	1126.6	124.27	308.1	1028.5	287.87	431.44	710.07	467.21	482.5	598.14	427.52	408.96	620.13	447.4	497.22	685.87	449.56	446.05	525.74	421.26	424.26	511.27	303.87	364.83	354.54	440.76	433.2	294.99	426.48	361.83	278.36	431.38	429.41	368.43	437.47	392.63	94.056	411.26	423.08	105.44	328.19	332.24	76.703	361.68	342.8	44.833	332.6	334.03	46.971	397.24	492.74	39.865	453.8	542.62	45.789	347.94	589.08	60.168	395.44	368.66	702.83	122.73	436	596.27	113.16	374.85	613.7	126.62	434.84	684.96	97.471	414.29	516.46	119.07	426.42	515.41	254.67	366.36	383.25	102.36	432.73	295.44	113.35	369.49	306.21	105.95	428.99	373.41	110.5	404.55	106.33	126.47	418.05	96.614	217.86	335.17	70.263	173.19	346.14	46.072	206.64	337.72	42.601	145.11	512.36	43.763	95.834	546.13	43.807	205.3	599.41	60.533	148.98	390.34	1501.9	298.32	326.66	1244.4	284.88
1802	7.5042	589.1	1199.6	293.39	460.6	1454.9	444.3	458.5	1449.5	129.32	525.78	1748.7	288.93	550.02	1034.4	400.94	536.22	1031.5	154.33	327.34	1062.5	334.47	328.68	1063.4	244.86	466.85	951.51	476.65	453.94	946.87	93.09	460.75	1114.9	448.68	428.2	1126.6	124.28	308.1	1028.5	287.88	431.44	710.07	467.22	482.51	598.14	427.53	408.96	620.13	447.41	497.22	685.87	449.57	446.07	525.74	421.28	424.26	511.27	303.88	364.84	354.54	440.77	433.2	294.98	426.49	361.83	278.36	431.38	429.41	368.43	437.47	392.62	94.055	411.26	423.08	105.44	328.19	332.24	76.706	361.68	342.8	44.832	332.6	334.03	46.961	397.24	492.74	39.865	453.8	542.62	45.784	347.95	589.08	60.17	395.44	368.67	702.83	122.73	436	596.27	113.17	374.85	613.7	126.63	434.84	684.95	97.477	414.29	516.46	119.07	426.41	515.41	254.67	366.36	383.25	102.37	432.73	295.44	113.35	369.49	306.21	105.95	428.99	373.41	110.5	404.55	106.33	126.47	418.05	96.614	217.86	335.17	70.263	173.19	346.14	46.071	206.64	337.72	42.602	145.11	512.36	43.763	95.834	546.13	43.807	205.3	599.41	60.533	148.98	390.36	1501.9	298.33	326.66	1244.4	284.9
1803	7.5083	589.1	1199.6	293.4	460.62	1454.9	444.31	458.51	1449.5	129.33	525.81	1748.6	288.94	550.02	1034.4	400.95	536.22	1031.5	154.34	327.34	1062.5	334.48	328.68	1063.4	244.87	466.84	951.51	476.66	453.95	946.87	93.094	460.75	1114.9	448.69	428.2	1126.6	124.29	308.1	1028.5	287.89	431.44	710.07	467.22	482.51	598.14	427.54	408.96	620.13	447.42	497.22	685.87	449.58	446.08	525.75	421.3	424.27	511.27	303.89	364.84	354.53	440.77	433.21	294.98	426.49	361.84	278.36	431.38	429.42	368.43	437.48	392.62	94.054	411.26	423.08	105.44	328.2	332.24	76.709	361.68	342.79	44.831	332.6	334.02	46.951	397.24	492.74	39.864	453.8	542.61	45.778	347.95	589.08	60.172	395.44	368.67	702.82	122.74	436	596.27	113.17	374.85	613.7	126.64	434.84	684.95	97.483	414.29	516.46	119.08	426.41	515.41	254.68	366.36	383.25	102.37	432.73	295.44	113.35	369.49	306.21	105.95	428.99	373.41	110.51	404.55	106.33	126.47	418.05	96.613	217.86	335.17	70.262	173.19	346.14	46.07	206.64	337.72	42.602	145.11	512.36	43.762	95.833	546.13	43.806	205.3	599.41	60.533	148.98	390.38	1501.9	298.35	326.67	1244.4	284.91
1804	7.5125	589.11	1199.6	293.4	460.64	1454.9	444.32	458.52	1449.5	129.34	525.85	1748.6	288.94	550.02	1034.4	400.96	536.22	1031.5	154.36	327.34	1062.5	334.49	328.68	1063.4	244.87	466.84	951.51	476.67	453.95	946.86	93.099	460.75	1114.9	448.7	428.2	1126.6	124.3	308.1	1028.5	287.9	431.44	710.07	467.23	482.51	598.14	427.55	408.96	620.13	447.43	497.22	685.87	449.59	446.1	525.76	421.32	424.27	511.27	303.89	364.84	354.53	440.78	433.21	294.98	426.49	361.84	278.35	431.39	429.42	368.42	437.48	392.62	94.053	411.27	423.08	105.44	328.2	332.23	76.713	361.68	342.79	44.83	332.6	334.02	46.942	397.23	492.74	39.864	453.8	542.6	45.772	347.96	589.08	60.174	395.44	368.67	702.82	122.75	436	596.27	113.18	374.85	613.7	126.64	434.84	684.95	97.489	414.29	516.46	119.08	426.41	515.41	254.68	366.36	383.25	102.38	432.73	295.44	113.36	369.49	306.21	105.96	428.99	373.41	110.51	404.55	106.33	126.47	418.05	96.613	217.86	335.17	70.262	173.19	346.14	46.069	206.64	337.72	42.602	145.11	512.36	43.762	95.833	546.13	43.806	205.3	599.41	60.532	148.98	390.4	1501.9	298.36	326.68	1244.4	284.92
1805	7.5167	589.11	1199.6	293.41	460.66	1454.8	444.33	458.53	1449.5	129.35	525.88	1748.6	288.95	550.02	1034.4	400.97	536.22	1031.5	154.37	327.34	1062.5	334.5	328.68	1063.4	244.88	466.84	951.51	476.68	453.96	946.86	93.103	460.75	1114.9	448.71	428.2	1126.6	124.31	308.11	1028.5	287.91	431.44	710.07	467.23	482.51	598.14	427.56	408.96	620.13	447.44	497.22	685.87	449.6	446.11	525.76	421.34	424.28	511.28	303.9	364.85	354.53	440.78	433.21	294.98	426.5	361.84	278.35	431.39	429.42	368.42	437.49	392.62	94.052	411.27	423.08	105.44	328.2	332.23	76.716	361.68	342.79	44.829	332.6	334.02	46.933	397.23	492.74	39.863	453.8	542.6	45.767	347.96	589.08	60.175	395.44	368.67	702.82	122.76	436	596.26	113.18	374.85	613.7	126.65	434.85	684.95	97.496	414.29	516.46	119.09	426.4	515.41	254.69	366.36	383.25	102.38	432.73	295.44	113.36	369.49	306.21	105.96	428.99	373.41	110.52	404.55	106.33	126.47	418.05	96.613	217.86	335.17	70.262	173.19	346.14	46.069	206.64	337.72	42.603	145.11	512.36	43.761	95.833	546.13	43.806	205.3	599.41	60.532	148.98	390.42	1501.9	298.38	326.69	1244.4	284.94
